<?xml version="1.0" encoding="UTF-8" standalone="no"?>
<!-- Created with Inkscape (http://www.inkscape.org/) -->

<svg
   xmlns:dc="http://purl.org/dc/elements/1.1/"
   xmlns:cc="http://creativecommons.org/ns#"
   xmlns:rdf="http://www.w3.org/1999/02/22-rdf-syntax-ns#"
   xmlns:svg="http://www.w3.org/2000/svg"
   xmlns="http://www.w3.org/2000/svg"
   xmlns:sodipodi="http://sodipodi.sourceforge.net/DTD/sodipodi-0.dtd"
   xmlns:inkscape="http://www.inkscape.org/namespaces/inkscape"
   width="744.09448819"
   height="1052.3622047"
   id="svg2"
   version="1.1"
   inkscape:version="0.48.4 r9939"
   sodipodi:docname="multisearch_logo_multicolored.svg">
  <defs
     id="defs4" />
  <sodipodi:namedview
     id="base"
     pagecolor="#ffffff"
     bordercolor="#666666"
     borderopacity="1.0"
     inkscape:pageopacity="0.0"
     inkscape:pageshadow="2"
     inkscape:zoom="1"
     inkscape:cx="332.5"
     inkscape:cy="543"
     inkscape:document-units="px"
     inkscape:current-layer="layer1"
     showgrid="false"
     inkscape:window-width="1366"
     inkscape:window-height="718"
     inkscape:window-x="0"
     inkscape:window-y="0"
     inkscape:window-maximized="1" />
  <metadata
     id="metadata7">
    <rdf:RDF>
      <cc:Work
         rdf:about="">
        <dc:format>image/svg+xml</dc:format>
        <dc:type
           rdf:resource="http://purl.org/dc/dcmitype/StillImage" />
        <dc:title></dc:title>
      </cc:Work>
    </rdf:RDF>
  </metadata>
  <g
     inkscape:label="Layer 1"
     inkscape:groupmode="layer"
     id="layer1">
    <path
       sodipodi:type="arc"
       style="fill:#1f3c47;fill-opacity:1;stroke:none"
       id="path3817"
       sodipodi:cx="271.5"
       sodipodi:cy="698.86218"
       sodipodi:rx="58.5"
       sodipodi:ry="58.5"
       d="m 330,698.86218 a 58.5,58.5 0 1 1 -117,0 58.5,58.5 0 1 1 117,0 z"
       transform="matrix(-0.47008547,0.81421191,-0.81421191,-0.47008547,864.6053,521.82861)" />
    <path
       transform="matrix(-0.47008547,0.81421191,-0.81421191,-0.47008547,1193.6949,711.82861)"
       d="m 330,698.86218 a 58.5,58.5 0 1 1 -117,0 58.5,58.5 0 1 1 117,0 z"
       sodipodi:ry="58.5"
       sodipodi:rx="58.5"
       sodipodi:cy="698.86218"
       sodipodi:cx="271.5"
       id="path3819"
       style="fill:#0077c0;fill-opacity:1;stroke:none"
       sodipodi:type="arc" />
    <path
       transform="matrix(0.47008547,0.81421191,-0.81421191,0.47008547,609.34889,54.77869)"
       d="m 330,698.86218 a 58.5,58.5 0 1 1 -117,0 58.5,58.5 0 1 1 117,0 z"
       sodipodi:ry="58.5"
       sodipodi:rx="58.5"
       sodipodi:cy="698.86218"
       sodipodi:cx="271.5"
       id="path3809"
       style="fill:#39aa38;fill-opacity:1;stroke:none"
       sodipodi:type="arc" />
    <path
       sodipodi:type="arc"
       style="fill:#efe51d;fill-opacity:1;stroke:none"
       id="path3811"
       sodipodi:cx="271.5"
       sodipodi:cy="698.86218"
       sodipodi:rx="58.5"
       sodipodi:ry="58.5"
       d="m 330,698.86218 a 58.5,58.5 0 1 1 -117,0 58.5,58.5 0 1 1 117,0 z"
       transform="matrix(0.47008547,0.81421191,-0.81421191,0.47008547,938.43854,-135.22131)" />
    <path
       sodipodi:type="arc"
       style="fill:#904a22;fill-opacity:1;stroke:none"
       id="path3760"
       sodipodi:cx="271.5"
       sodipodi:cy="698.86218"
       sodipodi:rx="58.5"
       sodipodi:ry="58.5"
       d="m 330,698.86218 a 58.5,58.5 0 1 1 -117,0 58.5,58.5 0 1 1 117,0 z"
       transform="matrix(0.94017094,0,0,0.94017094,77.243585,42.312267)" />
    <path
       transform="matrix(0.94017094,0,0,0.94017094,77.243585,-337.68773)"
       d="m 330,698.86218 a 58.5,58.5 0 1 1 -117,0 58.5,58.5 0 1 1 117,0 z"
       sodipodi:ry="58.5"
       sodipodi:rx="58.5"
       sodipodi:cy="698.86218"
       sodipodi:cx="271.5"
       id="path3798"
       style="fill:#e9473f;fill-opacity:1;stroke:none"
       sodipodi:type="arc" />
    <path
       style="fill:#727272;fill-opacity:1;stroke:none"
       d="m 332.51562,438.72156 c -56.27305,0 -106.4266,26.24516 -138.875,67.15625 32.4484,40.91109 82.60195,67.125 138.875,67.125 56.27173,0 106.39531,-26.21557 138.84375,-67.125 -32.44844,-40.90943 -82.57202,-67.15625 -138.84375,-67.15625 z"
       id="path3753"
       inkscape:connector-curvature="0" />
    <path
       transform="matrix(0.94017094,0,0,0.94017094,77.243585,-151.18773)"
       d="m 330,698.86218 a 58.5,58.5 0 1 1 -117,0 58.5,58.5 0 1 1 117,0 z"
       sodipodi:ry="58.5"
       sodipodi:rx="58.5"
       sodipodi:cy="698.86218"
       sodipodi:cx="271.5"
       id="path3788"
       style="fill:#ffffff;fill-opacity:1;stroke:none"
       sodipodi:type="arc" />
    <rect
       style="fill:#727272;fill-opacity:1;stroke:none"
       id="rect3821"
       width="18"
       height="61"
       x="301.5"
       y="475.36218" />
    <rect
       y="513.86218"
       x="323.5"
       height="22.5"
       width="18"
       id="rect3823"
       style="fill:#727272;fill-opacity:1;stroke:none" />
    <rect
       style="fill:#727272;fill-opacity:1;stroke:none"
       id="rect3825"
       width="18"
       height="39.5"
       x="345.5"
       y="496.86218" />
  </g>
</svg>
